<?xml version="1.0" standalone="no"?>
<!DOCTYPE svg PUBLIC "-//W3C//DTD SVG 20010904//EN"
 "http://www.w3.org/TR/2001/REC-SVG-20010904/DTD/svg10.dtd">
<svg version="1.0" xmlns="http://www.w3.org/2000/svg"
 width="512.000000pt" height="512.000000pt" viewBox="0 0 512.000000 512.000000"
 preserveAspectRatio="xMidYMid meet">
<metadata>
Created by potrace 1.14, written by Peter Selinger 2001-2017
</metadata>
<g transform="translate(0.000000,512.000000) scale(0.100000,-0.100000)"
fill="#000000" stroke="none">
<path d="M1930 4873 c-62 -202 -49 -406 37 -578 59 -117 139 -205 286 -315
l58 -43 112 58 c62 32 116 61 120 65 5 4 -24 29 -65 55 -40 26 -86 58 -101 71
l-29 24 282 0 282 0 -14 -22 c-30 -46 -191 -155 -361 -246 -222 -117 -307
-173 -401 -263 -189 -179 -267 -395 -226 -620 16 -90 90 -226 162 -300 77 -79
186 -161 207 -157 28 5 211 113 211 124 0 6 -15 18 -32 27 l-33 16 75 0 c70 1
81 4 175 54 l100 52 -250 5 -249 5 -26 40 c-14 22 -31 52 -38 68 l-12 27 405
0 c223 0 405 -3 405 -8 0 -4 -16 -31 -35 -59 -76 -113 -154 -169 -490 -353
-82 -45 -180 -102 -219 -128 -148 -99 -270 -245 -337 -403 -23 -54 -32 -93
-36 -160 l-6 -89 127 0 c119 0 128 1 133 20 5 20 14 20 464 20 448 0 459 0
469 -20 10 -18 21 -20 125 -20 62 0 116 3 118 8 10 17 -25 140 -62 217 -64
130 -189 275 -312 361 l-37 26 -111 -57 c-61 -31 -111 -60 -111 -65 0 -4 24
-22 54 -39 30 -16 57 -35 61 -41 4 -7 -64 -10 -212 -10 l-218 1 40 35 c22 20
156 101 297 181 279 159 364 222 462 347 100 126 146 251 146 398 0 196 -77
348 -253 495 -45 38 -87 73 -94 77 -10 6 -209 -86 -223 -103 -3 -3 -50 -28
-105 -56 -54 -27 -101 -55 -102 -61 -3 -8 23 -10 84 -8 48 2 131 0 183 -4 l94
-7 38 -50 c21 -27 38 -56 38 -62 0 -10 -80 -13 -365 -13 l-366 0 12 23 c7 12
46 56 89 98 80 80 128 111 418 270 188 103 281 174 367 281 75 94 155 249 179
349 29 119 19 348 -21 477 l-17 52 -143 0 c-158 0 -155 1 -128 -63 8 -20 15
-39 15 -42 0 -3 -184 -5 -410 -5 l-410 0 20 53 c11 28 20 53 20 55 0 1 -65 2
-145 2 l-144 0 -21 -67z m56 -92 c-17 -49 -32 -88 -35 -86 -5 5 17 119 30 151
4 13 15 24 22 24 10 0 6 -23 -17 -89z m1064 -83 c0 -13 3 -47 6 -75 l7 -53
-447 0 -446 0 0 68 c0 38 3 72 7 75 3 4 201 7 440 7 l433 0 0 -22z m-14 -270
c-3 -18 -14 -48 -24 -68 l-17 -35 -369 0 -370 0 -17 30 c-10 17 -25 47 -34 68
l-15 37 426 0 427 0 -7 -32z m-9 -195 c-31 -60 -112 -145 -197 -205 -36 -25
-139 -86 -230 -136 -325 -178 -442 -269 -537 -419 -51 -80 -65 -89 -35 -21 44
99 161 223 287 303 28 18 131 76 230 130 99 54 212 120 252 147 76 53 216 191
235 233 6 14 13 23 15 21 3 -2 -7 -26 -20 -53z m11 -1030 l3 -73 -431 0 -430
0 0 49 c0 27 4 61 10 75 l10 26 417 -2 418 -3 3 -72z m12 -268 c-31 -64 -115
-152 -204 -214 -41 -28 -155 -95 -253 -147 -214 -116 -320 -184 -394 -256
-104 -100 -188 -224 -229 -340 -11 -29 -19 -44 -19 -33 -1 42 49 158 102 237
103 155 192 225 492 388 295 160 431 264 495 377 31 56 38 47 10 -12z m-81
-860 c17 -20 40 -53 51 -75 l20 -40 -425 0 c-290 0 -425 3 -425 10 0 16 29 70
57 108 l24 32 333 0 334 0 31 -35z"/>
<path d="M1762 4235 c-84 -63 -225 -214 -304 -326 -119 -166 -188 -329 -240
-560 -20 -92 -23 -129 -22 -319 0 -183 3 -230 22 -317 63 -292 185 -514 409
-741 108 -111 133 -126 133 -78 0 48 44 195 81 273 l39 83 -41 42 c-104 108
-188 262 -236 433 -25 93 -27 113 -27 295 -1 169 2 207 22 283 60 241 184 443
363 594 44 36 79 69 79 73 0 4 -23 35 -50 69 -28 35 -72 103 -98 152 -26 49
-52 89 -59 89 -6 0 -38 -20 -71 -45z"/>
<path d="M3360 4192 c-24 -48 -68 -121 -97 -163 l-52 -77 108 -108 c193 -194
294 -396 330 -657 47 -338 -75 -719 -296 -928 -55 -52 -55 -53 -39 -78 41 -64
86 -163 111 -244 14 -48 29 -87 33 -87 15 0 156 129 213 195 164 189 256 364
319 609 110 430 27 902 -218 1245 -87 121 -176 222 -261 295 -43 38 -85 72
-93 77 -10 6 -25 -14 -58 -79z"/>
<path d="M1650 3140 c-26 -26 -25 -52 0 -75 16 -15 26 -17 48 -9 37 13 43 65
10 88 -29 20 -34 20 -58 -4z"/>
<path d="M3512 3144 c-33 -23 -27 -75 10 -88 55 -19 93 55 46 88 -28 20 -28
20 -56 0z"/>
<path d="M1631 2944 c-43 -55 -8 -134 59 -134 35 0 90 46 90 75 0 24 -27 72
-45 79 -39 15 -83 6 -104 -20z"/>
<path d="M3472 2947 c-70 -74 36 -182 112 -114 39 34 42 68 11 105 -34 41 -90
45 -123 9z"/>
<path d="M1724 2700 c-47 -19 -68 -85 -43 -132 6 -11 26 -26 45 -34 76 -32
154 43 123 117 -19 48 -75 69 -125 49z"/>
<path d="M3397 2690 c-56 -44 -40 -138 26 -159 97 -32 169 81 96 150 -38 35
-84 38 -122 9z"/>
<path d="M1873 2450 c-66 -27 -48 -130 22 -130 30 0 75 41 75 68 0 44 -55 79
-97 62z"/>
<path d="M3290 2447 c-13 -7 -29 -25 -34 -40 -22 -61 67 -114 113 -68 53 53
-12 142 -79 108z"/>
<path d="M619 1554 c-3 -51 -3 -864 1 -865 79 -7 267 -8 330 0 259 32 429 251
391 501 -27 170 -129 290 -294 342 -49 16 -101 21 -244 25 -105 4 -183 2 -184
-3z m351 -236 c86 -26 140 -99 140 -190 -1 -126 -94 -218 -220 -218 l-50 0 0
216 0 215 48 -6 c26 -4 63 -11 82 -17z"/>
<path d="M1937 1553 c-4 -3 -7 -199 -7 -435 l1 -428 114 0 115 0 0 246 0 246
183 -173 c100 -96 217 -207 260 -247 l78 -73 77 3 77 3 0 430 0 430 -115 0
-115 0 -3 -243 -2 -243 -238 223 c-130 123 -250 234 -266 246 -22 17 -42 22
-91 22 -34 0 -65 -3 -68 -7z"/>
<path d="M3916 1533 c-54 -105 -386 -826 -386 -838 0 -3 56 -5 124 -5 l123 0
30 68 30 69 123 6 c68 4 151 7 184 7 l62 0 37 -75 37 -75 120 0 c83 0 120 4
120 11 0 7 -21 55 -46 108 -25 53 -109 233 -186 401 -76 168 -146 315 -154
328 -13 20 -22 22 -109 22 -93 0 -95 0 -109 -27z m160 -398 l43 -95 -91 0
c-49 0 -88 4 -86 8 24 62 84 189 87 186 2 -2 23 -46 47 -99z"/>
<path d="M990 473 c-14 -3 -111 -214 -110 -240 0 -22 58 -16 70 7 16 29 105
29 120 -1 15 -27 67 -23 62 4 -5 31 -106 231 -117 233 -5 1 -17 0 -25 -3z m40
-145 c0 -4 -11 -8 -25 -8 -23 0 -24 2 -13 26 11 24 13 25 25 8 7 -10 13 -21
13 -26z"/>
<path d="M1498 436 c-49 -64 -50 -65 -46 -16 3 44 2 45 -27 45 l-30 0 -3 -123
-3 -123 33 3 c30 3 33 6 38 43 l6 40 40 -42 c34 -35 48 -43 77 -43 21 0 37 3
37 7 0 3 -25 33 -56 65 l-56 58 32 40 c17 22 36 42 41 45 19 13 8 33 -21 37
-27 4 -35 -1 -62 -36z"/>
<path d="M2610 467 c-47 -16 -80 -68 -80 -124 0 -83 90 -145 176 -121 56 15
76 41 72 96 l-3 47 -57 3 -58 3 0 -31 c0 -25 4 -30 24 -30 30 0 42 -15 20 -24
-80 -31 -150 47 -91 102 26 25 58 28 87 10 15 -10 23 -9 39 6 27 24 26 32 -1
50 -34 21 -88 27 -128 13z"/>
<path d="M3503 465 c-90 -39 -97 -179 -13 -229 42 -24 120 -21 161 7 31 21 34
27 34 72 l0 50 -60 0 c-58 0 -60 -1 -63 -27 -3 -25 0 -28 28 -28 45 0 33 -24
-13 -28 -49 -4 -92 35 -82 76 4 15 11 33 17 39 13 16 80 17 96 1 10 -10 18 -7
39 14 l26 26 -41 21 c-48 24 -84 26 -129 6z"/>
<path d="M3927 473 l-98 -4 3 -27 c3 -23 8 -27 40 -30 l37 -3 3 -92 3 -92 30
0 30 0 3 92 3 92 32 3 c28 3 32 7 35 36 2 22 -1 31 -10 30 -7 -1 -57 -4 -111
-5z"/>
<path d="M600 344 l0 -125 33 3 c32 3 32 3 32 55 l-1 53 32 -31 32 -31 31 33
30 34 1 -57 c0 -58 0 -58 30 -58 l30 0 0 125 c0 115 -1 125 -19 125 -10 0 -37
-24 -62 -55 l-44 -55 -48 55 c-72 82 -77 78 -77 -71z"/>
<path d="M1160 345 l0 -125 30 0 c27 0 30 3 30 30 0 39 20 39 48 0 18 -23 30
-30 57 -30 41 0 42 2 14 41 -19 28 -20 31 -5 48 40 44 23 131 -30 151 -14 6
-52 10 -85 10 l-59 0 0 -125z m130 44 c15 -27 -3 -49 -41 -49 -26 0 -29 3 -29
35 0 32 2 35 30 35 19 0 33 -7 40 -21z"/>
<path d="M1644 457 c-2 -7 -3 -62 -2 -123 l3 -109 93 -3 92 -3 0 31 0 30 -60
0 c-47 0 -60 3 -60 15 0 11 12 15 50 15 49 0 50 1 50 30 0 29 -1 30 -50 30
-43 0 -50 3 -50 20 0 16 8 19 63 22 59 3 62 4 65 31 l3 27 -96 0 c-70 0 -97
-4 -101 -13z"/>
<path d="M1862 443 c3 -24 8 -28 40 -31 l37 -3 3 -92 3 -92 30 0 30 0 3 93 3
92 34 0 c25 0 35 5 40 20 3 11 3 24 0 30 -4 6 -53 10 -116 10 l-110 0 3 -27z"/>
<path d="M2125 458 c-3 -8 -4 -63 -3 -124 l3 -109 33 -3 33 -3 -3 123 -3 123
-28 3 c-16 2 -29 -2 -32 -10z"/>
<path d="M2250 345 l0 -125 30 0 30 0 0 68 0 67 63 -67 c41 -44 71 -68 85 -68
21 0 22 3 22 125 l0 125 -30 0 -30 0 0 -65 c0 -36 -2 -65 -4 -65 -2 0 -32 29
-67 65 -34 36 -70 65 -81 65 -16 0 -18 -10 -18 -125z"/>
<path d="M3030 346 l0 -126 73 0 c117 0 163 43 158 148 -1 12 -16 39 -35 60
-33 36 -36 37 -115 40 l-81 4 0 -126z m150 44 c43 -43 10 -110 -55 -110 l-35
0 0 65 0 65 35 0 c22 0 43 -8 55 -20z"/>
<path d="M3320 345 l0 -125 30 0 30 0 0 125 0 125 -30 0 -30 0 0 -125z"/>
<path d="M3730 345 l0 -125 30 0 30 0 0 125 0 125 -30 0 -30 0 0 -125z"/>
<path d="M4113 355 c-29 -64 -53 -121 -53 -126 0 -18 59 -9 70 11 9 16 21 20
65 20 45 0 55 -3 60 -20 8 -27 65 -29 65 -2 -1 9 -23 64 -49 122 -44 95 -52
105 -77 108 -28 3 -31 -2 -81 -113z m85 -33 c-27 -5 -31 1 -17 32 l13 27 11
-28 c10 -25 9 -28 -7 -31z"/>
<path d="M4360 345 l0 -125 91 0 90 0 -3 28 c-3 25 -7 27 -54 30 l-51 3 -7 46
c-3 25 -6 68 -6 94 0 48 -1 49 -30 49 l-30 0 0 -125z"/>
</g>
</svg>
